<svg xmlns="http://www.w3.org/2000/svg" xmlns:xlink="http://www.w3.org/1999/xlink" width="500" zoomAndPan="magnify" viewBox="0 0 375 374.999991" height="500" preserveAspectRatio="xMidYMid meet" version="1.0"><path fill="#2e7d32" d="M 201.996094 226.136719 C 201.996094 226.136719 219.574219 171.835938 175.539062 160.351562 C 175.539062 160.351562 169.25 156.222656 168.871094 154.769531 C 168.492188 153.3125 164.203125 148.488281 161.3125 147.21875 C 161.3125 147.21875 158.800781 139.480469 157.183594 138.402344 C 157.183594 138.402344 160.609375 119.71875 156.453125 117.722656 C 152.324219 115.78125 146.382812 127.265625 146.382812 127.265625 C 146.382812 127.265625 136.125 128.34375 134.855469 127.804688 C 133.585938 127.265625 123.328125 117.023438 121.355469 118.640625 C 119.386719 120.257812 119.546875 123.679688 122.246094 138.050781 C 122.246094 138.050781 112.527344 149.027344 128.539062 164.824219 C 128.539062 164.824219 129.429688 166.632812 130.347656 169.867188 C 131.238281 173.101562 128.914062 175.179688 132.316406 182.59375 C 135.746094 190.007812 142.578125 201.144531 141.496094 203.300781 C 141.496094 203.300781 142.226562 228.105469 139.6875 229.183594 C 137.148438 230.261719 132.398438 234.925781 138.066406 237.625 C 138.066406 237.625 138.09375 240.859375 140.039062 241.75 C 144.277344 243.714844 148.675781 243.367188 150.648438 241.75 C 152.621094 240.128906 153.886719 239.78125 155.695312 235.628906 L 160.015625 236.355469 C 159.71875 237.03125 159.019531 238.917969 159.800781 240.777344 C 159.800781 240.777344 160.449219 242.289062 162.367188 243.367188 C 165.417969 245.089844 175.164062 244.039062 187.554688 240.671875 C 187.554688 240.671875 193.304688 244.632812 202.671875 239.589844 C 212.039062 234.550781 234.71875 234.386719 240.65625 240.671875 C 246.597656 246.953125 223.054688 250.59375 223.054688 250.59375 C 223.054688 250.59375 214.957031 256.875 225.566406 257.953125 C 236.175781 259.03125 262.472656 248.246094 251.835938 237.460938 C 241.199219 226.675781 219.976562 222.363281 201.996094 226.136719 Z M 201.996094 226.136719 " fill-opacity="1" fill-rule="nonzero"/></svg>