<svg xmlns="http://www.w3.org/2000/svg" xmlns:xlink="http://www.w3.org/1999/xlink" width="500" zoomAndPan="magnify" viewBox="0 0 375 374.999991" height="500" preserveAspectRatio="xMidYMid meet" version="1.0"><path fill="#e73f1c" d="M 182.953125 302.914062 C 182.226562 287.675781 186.628906 272.617188 185.21875 257.359375 C 185 255.019531 182.570312 254.039062 180.773438 255.515625 C 180.632812 255.628906 180.515625 255.757812 180.394531 255.878906 C 177.90625 254.53125 175.085938 253.890625 172.242188 254.054688 C 171.609375 254.09375 171.082031 254.335938 170.671875 254.683594 C 170.363281 254.558594 170.035156 254.484375 169.71875 254.484375 C 168.199219 254.484375 167.246094 255.683594 167.113281 257.089844 C 166.253906 266.140625 165.390625 275.1875 164.53125 284.238281 C 164.105469 288.695312 163.753906 293.167969 163.21875 297.613281 C 162.972656 299.652344 162.640625 301.683594 162.171875 303.683594 C 161.675781 305.808594 160.863281 307.84375 160.367188 309.964844 C 159.546875 313.460938 159.816406 317.574219 162.765625 320.042969 C 164.265625 321.292969 166.078125 321.683594 167.972656 321.90625 C 170.234375 322.167969 172.515625 322.324219 174.792969 322.453125 C 178.769531 322.675781 182.914062 322.992188 186.878906 322.496094 C 190.382812 322.054688 193.820312 320.519531 195.183594 317.023438 C 196.539062 313.542969 195.144531 309.433594 192.539062 306.90625 C 189.941406 304.382812 186.445312 303.445312 182.953125 302.914062 Z M 170.828125 275.089844 C 170.808594 275.167969 170.792969 275.25 170.777344 275.332031 C 170.765625 275.296875 170.753906 275.261719 170.742188 275.230469 C 170.714844 275.136719 170.664062 275.070312 170.621094 274.996094 C 170.839844 272.683594 171.058594 270.375 171.277344 268.066406 C 171.507812 269.1875 171.664062 270.320312 171.753906 271.464844 C 171.730469 272.199219 171.746094 272.941406 171.789062 273.683594 C 171.332031 273.992188 170.980469 274.460938 170.828125 275.089844 Z M 170.828125 275.089844 " fill-opacity="1" fill-rule="nonzero"/><path fill="#e73f1c" d="M 254.234375 300.027344 C 250.457031 298.214844 246.246094 298.59375 242.222656 299.257812 C 242.203125 287.007812 242.179688 274.753906 242.160156 262.503906 C 242.152344 259.558594 242.449219 256.429688 242.03125 253.511719 C 241.710938 251.285156 240.328125 249.75 238.078125 249.414062 C 235.441406 249.019531 232.527344 249.53125 229.878906 249.675781 C 227.800781 249.785156 224.785156 249.457031 223.253906 251.207031 C 221.453125 253.265625 222.933594 257.152344 223.328125 259.496094 C 223.414062 260.027344 223.503906 260.558594 223.59375 261.089844 C 224.15625 278.019531 224.585938 294.964844 225.386719 311.882812 C 225.457031 313.363281 225.589844 314.980469 226.632812 316.136719 C 227.839844 317.472656 229.621094 317.5625 231.296875 317.6875 C 235.605469 318.015625 239.9375 318.464844 244.257812 318.597656 C 248.128906 318.714844 252.261719 318.304688 255.484375 315.960938 C 257.964844 314.160156 259.898438 311.34375 259.921875 308.1875 C 259.945312 304.574219 257.371094 301.535156 254.234375 300.027344 Z M 226.328125 261.707031 C 226.285156 261.472656 226.246094 261.234375 226.207031 260.996094 C 226.152344 259.429688 226.097656 257.863281 226.042969 256.296875 C 226.039062 256.234375 226.019531 256.179688 226.007812 256.121094 C 226.128906 256.347656 226.269531 256.558594 226.445312 256.742188 C 226.507812 258.40625 226.449219 260.0625 226.328125 261.707031 Z M 232.472656 255.484375 C 232.8125 255.5 233.152344 255.511719 233.492188 255.542969 C 233.613281 255.554688 233.710938 255.566406 233.804688 255.578125 C 233.972656 256.378906 234.128906 257.179688 234.28125 257.980469 C 234.132812 259.082031 234.019531 260.183594 233.933594 261.285156 C 233.933594 261.277344 233.929688 261.269531 233.929688 261.265625 C 233.640625 259.535156 233.464844 257.582031 232.460938 256.085938 C 232.382812 255.96875 232.277344 255.878906 232.1875 255.769531 C 232.300781 255.691406 232.386719 255.585938 232.472656 255.484375 Z M 239.554688 258.824219 C 239.339844 258.695312 239.097656 258.609375 238.847656 258.566406 C 238.847656 258.558594 238.847656 258.550781 238.847656 258.542969 C 238.824219 258.121094 238.695312 257.78125 238.507812 257.5 C 238.496094 257.046875 238.503906 256.589844 238.484375 256.136719 C 238.480469 256.007812 238.460938 255.878906 238.429688 255.761719 C 238.335938 253.578125 237.074219 252.4375 235.339844 251.890625 C 235.988281 251.882812 236.632812 251.886719 237.261719 251.9375 C 239.097656 252.089844 239.484375 253.238281 239.539062 254.90625 C 239.578125 256.207031 239.5625 257.515625 239.554688 258.824219 Z M 256.863281 310.320312 C 256.878906 309.695312 256.8125 309.070312 256.613281 308.480469 C 256.855469 308.457031 257.082031 308.382812 257.292969 308.273438 C 257.289062 308.398438 257.3125 308.519531 257.300781 308.648438 C 257.246094 309.234375 257.078125 309.789062 256.863281 310.320312 Z M 256.863281 310.320312 " fill-opacity="1" fill-rule="nonzero"/><path fill="#7ed957" d="M 317.964844 169.785156 C 313.933594 158.421875 308.359375 147.542969 301.960938 137.335938 C 295.730469 127.398438 288.445312 118.007812 279.84375 110.007812 C 271.585938 102.328125 262.15625 95.90625 252.0625 90.902344 C 231.101562 80.511719 207.652344 76.027344 184.339844 76.734375 C 171.707031 77.117188 159.105469 78.945312 146.824219 81.914062 C 140.714844 83.390625 134.671875 85.15625 128.71875 87.183594 C 128.125 87.382812 127.535156 87.589844 126.9375 87.796875 C 123.515625 88.332031 120.121094 89.363281 117.527344 91.628906 C 116.253906 92.257812 115 92.929688 113.785156 93.667969 C 111.621094 94.980469 109.585938 96.492188 107.765625 98.21875 C 107.632812 97.695312 107.375 97.195312 106.953125 96.769531 C 105.773438 95.589844 103.507812 95.433594 102.347656 96.769531 C 87.761719 113.558594 78.976562 134.839844 77.179688 156.996094 C 75.445312 178.433594 80.921875 200.097656 92.191406 218.371094 C 97.691406 227.289062 104.523438 235.449219 112.445312 242.3125 C 121.175781 249.882812 131.132812 255.757812 141.714844 260.34375 C 153.152344 265.300781 165.167969 269.34375 177.351562 271.992188 C 190.375 274.824219 203.507812 275.234375 216.734375 273.792969 C 229.382812 272.417969 241.957031 270 254.421875 267.46875 C 265.539062 265.207031 276.617188 262.339844 286.859375 257.34375 C 296.863281 252.457031 305.488281 245.320312 311.925781 236.21875 C 318.308594 227.195312 322.148438 216.554688 323.207031 205.566406 C 324.367188 193.460938 322.007812 181.171875 317.964844 169.785156 Z M 88.164062 144.542969 C 88.128906 144.863281 88.101562 145.179688 88.070312 145.496094 C 87.386719 144.933594 86.496094 144.640625 85.574219 144.78125 C 85.558594 144.78125 85.546875 144.785156 85.53125 144.789062 C 85.816406 143.457031 86.128906 142.132812 86.464844 140.8125 C 86.6875 140.921875 86.914062 141.019531 87.152344 141.101562 C 87.335938 141.363281 87.542969 141.597656 87.78125 141.777344 C 88.191406 142.082031 88.625 142.265625 89.0625 142.363281 C 88.5625 142.929688 88.261719 143.683594 88.164062 144.542969 Z M 93.371094 141.9375 C 93.007812 141.695312 92.597656 141.515625 92.175781 141.414062 C 92.390625 141.230469 92.597656 141.039062 92.808594 140.851562 C 93.015625 140.769531 93.222656 140.675781 93.425781 140.585938 C 93.40625 141.035156 93.390625 141.484375 93.371094 141.9375 Z M 94.226562 128.441406 C 93.792969 128.96875 93.339844 129.480469 92.910156 130.011719 C 93.371094 128.953125 93.882812 127.917969 94.378906 126.878906 C 94.332031 127.398438 94.269531 127.917969 94.226562 128.441406 Z M 102.4375 163.742188 C 102.074219 163.511719 101.65625 163.363281 101.21875 163.308594 C 101.203125 162.453125 101.1875 161.59375 101.1875 160.738281 C 101.652344 160.601562 102.105469 160.429688 102.550781 160.238281 C 102.523438 161.40625 102.484375 162.574219 102.4375 163.742188 Z M 104 218.300781 C 103.714844 218.023438 103.394531 217.726562 103.257812 217.554688 C 103.636719 217.578125 104.007812 217.515625 104.359375 217.390625 C 104.21875 217.703125 104.082031 218.019531 104 218.300781 Z M 105.605469 197.277344 C 105.257812 195.839844 104.933594 194.398438 104.625 192.957031 C 104.933594 191.914062 105.222656 190.867188 105.492188 189.820312 C 105.59375 190.695312 105.722656 191.566406 105.828125 192.441406 C 105.671875 194.113281 105.800781 195.773438 106.179688 197.382812 C 105.988281 197.339844 105.796875 197.289062 105.605469 197.277344 Z M 111.582031 140.964844 C 111.570312 140.984375 111.558594 141.003906 111.546875 141.023438 C 111.148438 141.601562 110.730469 142.164062 110.320312 142.734375 C 110.28125 142.578125 110.242188 142.421875 110.203125 142.269531 C 110.664062 141.78125 111.128906 141.296875 111.59375 140.8125 C 111.589844 140.863281 111.585938 140.914062 111.582031 140.964844 Z M 111.015625 119.144531 C 111.492188 118.640625 111.964844 118.136719 112.441406 117.632812 L 114.988281 116.558594 C 114.996094 116.636719 115.015625 116.714844 115.03125 116.796875 C 113.6875 117.566406 112.347656 118.351562 111.015625 119.144531 Z M 170.089844 87.519531 C 171.074219 87.390625 172.0625 87.265625 173.058594 87.15625 C 172.625 87.644531 172.433594 88.320312 172.464844 88.988281 L 169.941406 88.824219 C 170.105469 88.410156 170.15625 87.960938 170.089844 87.519531 Z M 167.199219 233.34375 C 167.199219 233.285156 167.199219 233.226562 167.195312 233.167969 C 170.171875 233.722656 173.136719 234.367188 176.082031 235.0625 C 176.089844 235.085938 176.09375 235.105469 176.097656 235.125 C 173.125 234.578125 170.15625 233.984375 167.199219 233.34375 Z M 182.019531 243.195312 C 181.515625 242.957031 181.011719 242.710938 180.503906 242.46875 C 181.085938 242.5625 181.671875 242.644531 182.253906 242.730469 C 182.175781 242.882812 182.09375 243.039062 182.019531 243.195312 Z M 252.183594 98.382812 C 251.09375 98.019531 250.003906 97.65625 248.914062 97.292969 C 248.8125 97.152344 248.726562 97.007812 248.609375 96.871094 C 248.394531 96.613281 248.164062 96.382812 247.921875 96.164062 C 249.363281 96.867188 250.773438 97.625 252.183594 98.382812 Z M 235.25 122.808594 C 235.675781 122.878906 236.097656 122.953125 236.523438 123.03125 C 236.367188 123.230469 236.234375 123.449219 236.125 123.679688 C 235.792969 123.421875 235.464844 123.160156 235.136719 122.902344 C 235.175781 122.871094 235.210938 122.839844 235.25 122.808594 Z M 203.558594 169.199219 C 203.769531 170.242188 203.957031 171.289062 204.152344 172.335938 C 204.058594 172.410156 203.96875 172.480469 203.875 172.554688 C 203.546875 170.910156 203.226562 169.265625 202.890625 167.625 Z M 198.320312 83.492188 C 199.683594 83.578125 201.046875 83.703125 202.40625 83.824219 C 202.140625 84.128906 201.886719 84.433594 201.648438 84.75 C 200.5625 84.273438 199.453125 83.851562 198.320312 83.492188 Z M 205.152344 245.78125 C 204.957031 245.863281 204.761719 245.941406 204.570312 246.023438 C 204.433594 245.792969 204.300781 245.558594 204.171875 245.320312 C 204.53125 245.351562 204.890625 245.382812 205.25 245.410156 Z M 225.710938 172.792969 C 225.796875 172.734375 225.878906 172.675781 225.964844 172.621094 C 226.003906 173.234375 226.042969 173.847656 226.085938 174.460938 C 225.957031 173.90625 225.835938 173.347656 225.710938 172.792969 Z M 250.484375 194.703125 C 250.394531 194.777344 250.304688 194.859375 250.214844 194.9375 C 250.199219 194.515625 250.183594 194.09375 250.164062 193.671875 C 250.398438 193.316406 250.613281 192.945312 250.84375 192.585938 C 250.726562 193.292969 250.609375 193.996094 250.484375 194.703125 Z M 259.921875 246.066406 C 259.925781 245.789062 259.890625 245.519531 259.8125 245.257812 C 260.964844 245 262.117188 244.746094 263.273438 244.507812 C 262.15625 245.027344 261.039062 245.546875 259.921875 246.066406 Z M 270.734375 143.648438 C 270.457031 143.933594 270.175781 144.21875 269.894531 144.503906 C 269.824219 143.4375 268.992188 142.492188 268.027344 142.019531 C 267.941406 141.792969 267.855469 141.566406 267.773438 141.339844 C 268.816406 142.070312 269.878906 142.769531 270.9375 143.480469 C 270.871094 143.539062 270.796875 143.585938 270.734375 143.648438 Z M 309.3125 228.246094 C 309.316406 228.019531 309.292969 227.792969 309.25 227.570312 C 309.460938 227.378906 309.652344 227.160156 309.800781 226.90625 C 310.007812 226.566406 310.195312 226.214844 310.386719 225.867188 C 310.460938 225.871094 310.53125 225.882812 310.601562 225.882812 C 310.191406 226.679688 309.765625 227.46875 309.3125 228.246094 Z M 309.3125 228.246094 " fill-opacity="1" fill-rule="nonzero"/><path fill="#30a399" d="M 206.714844 60.390625 C 204.609375 56.890625 199.554688 55.546875 195.796875 54.953125 C 178.785156 52.261719 160.523438 54.492188 144.707031 61.222656 C 137.421875 64.324219 130.242188 68.039062 123.585938 72.332031 C 117.644531 76.167969 112.007812 80.769531 108.128906 86.761719 C 107.222656 88.15625 106.441406 89.632812 105.785156 91.167969 C 95.738281 82.417969 84.289062 75.484375 71.882812 70.554688 C 70.660156 70.070312 68.761719 70.859375 68.207031 72.054688 C 65.332031 78.214844 63.140625 84.636719 61.777344 91.300781 C 61.460938 92.847656 62.21875 95.050781 64.054688 95.308594 C 72.253906 96.453125 80.457031 97.597656 88.660156 98.742188 C 80.910156 102.589844 74.464844 109.042969 71.019531 117.113281 C 67.726562 124.839844 67.113281 133.191406 65.90625 141.410156 C 64.667969 149.855469 62.359375 158.066406 59.835938 166.207031 C 57.292969 174.390625 54.5625 182.53125 52.605469 190.878906 C 51.761719 194.460938 50.652344 198.632812 52.488281 202.105469 C 54.671875 206.242188 59.410156 206.261719 63.136719 204.378906 C 66.925781 202.460938 70.5 199.875 74.0625 197.574219 C 77.699219 195.222656 81.296875 192.800781 84.789062 190.234375 C 91.390625 185.378906 97.679688 180.054688 103.039062 173.828125 C 108.117188 167.929688 112.308594 161.40625 115.1875 154.160156 C 118.308594 146.320312 119.601562 137.804688 119.789062 129.398438 C 119.882812 125.183594 119.683594 120.960938 119.285156 116.765625 C 119.078125 114.621094 118.816406 112.480469 118.527344 110.34375 C 118.394531 109.375 118.257812 108.40625 118.109375 107.4375 C 118.054688 107.074219 117.957031 106.613281 117.925781 106.246094 C 117.902344 106.078125 117.890625 105.90625 117.890625 105.738281 C 117.894531 105.699219 117.894531 105.683594 117.894531 105.648438 C 118.03125 105.628906 118.160156 105.605469 118.140625 105.609375 C 118.617188 105.523438 119.097656 105.300781 119.5625 105.171875 C 120.511719 104.902344 121.480469 104.691406 122.453125 104.519531 C 124.511719 104.148438 126.613281 104.023438 128.699219 103.925781 C 133.171875 103.722656 137.632812 103.675781 142.082031 103.125 C 150.832031 102.042969 159.59375 100.191406 168.140625 98.027344 C 175.808594 96.089844 183.207031 93.179688 189.582031 88.414062 C 195.539062 83.957031 200.617188 78.390625 204.316406 71.914062 C 206.230469 68.5625 208.988281 64.167969 206.714844 60.390625 Z M 58.378906 199.191406 C 58.113281 199.136719 58.1875 199.082031 58.132812 198.84375 C 58.121094 198.773438 58.117188 198.699219 58.105469 198.628906 C 58.148438 198.617188 58.191406 198.621094 58.234375 198.601562 C 58.242188 198.597656 58.25 198.59375 58.257812 198.589844 C 58.398438 198.578125 58.539062 198.535156 58.664062 198.425781 C 58.769531 198.332031 58.875 198.234375 58.980469 198.140625 C 59.113281 198.429688 59.308594 198.691406 59.554688 198.910156 C 59.148438 199.101562 58.71875 199.257812 58.378906 199.191406 Z M 71.511719 167.089844 C 71.308594 166.953125 71.082031 166.839844 70.839844 166.753906 C 71.199219 165.445312 71.558594 164.132812 71.917969 162.820312 C 71.785156 164.246094 71.648438 165.667969 71.511719 167.089844 Z M 73.265625 137.03125 C 73.140625 137.199219 73.015625 137.359375 72.898438 137.53125 C 73.070312 136.339844 73.246094 135.152344 73.425781 133.960938 C 73.335938 134.980469 73.28125 136.007812 73.265625 137.03125 Z M 82.578125 111.71875 C 82.402344 111.699219 82.222656 111.710938 82.050781 111.75 C 82.757812 110.964844 83.492188 110.203125 84.273438 109.492188 C 83.679688 110.21875 83.121094 110.960938 82.578125 111.71875 Z M 112.503906 121.453125 C 112.453125 121.109375 112.414062 120.761719 112.359375 120.417969 C 112.566406 119.988281 112.769531 119.558594 112.957031 119.125 C 113.007812 119.808594 113.035156 120.496094 113.074219 121.183594 C 112.855469 121.179688 112.636719 121.265625 112.503906 121.453125 Z M 146.21875 67.804688 C 145.960938 67.878906 145.703125 67.945312 145.445312 68.015625 C 146.660156 67.476562 147.878906 66.957031 149.109375 66.464844 C 148.132812 66.882812 147.167969 67.328125 146.21875 67.804688 Z M 146.21875 67.804688 " fill-opacity="1" fill-rule="nonzero"/><path fill="#e73f1c" d="M 177.375 180.492188 C 177.367188 180.820312 177.355469 181.15625 177.335938 181.496094 C 177.351562 182.351562 177.332031 183.199219 177.136719 184.046875 C 177.019531 184.558594 176.796875 185.027344 176.53125 185.46875 C 175.632812 188 172.953125 189.800781 170.242188 188.84375 C 169.121094 188.449219 168.226562 187.789062 167.507812 186.972656 C 167.097656 186.59375 166.714844 186.175781 166.402344 185.710938 C 165.304688 184.097656 165.074219 182.050781 165.191406 180.117188 C 165.136719 178.597656 165.285156 177.089844 165.582031 175.785156 C 165.804688 174.808594 166.175781 173.820312 166.699219 172.941406 C 167.160156 171.691406 167.890625 170.578125 169.035156 169.894531 C 170.640625 168.9375 172.835938 169.167969 174.152344 170.535156 C 174.195312 170.582031 174.226562 170.636719 174.269531 170.683594 C 174.613281 170.917969 174.9375 171.179688 175.203125 171.488281 C 175.246094 171.535156 175.277344 171.589844 175.316406 171.640625 C 175.855469 172.183594 176.289062 172.828125 176.601562 173.574219 C 176.992188 174.503906 177.121094 175.496094 177.175781 176.496094 C 177.390625 177.511719 177.488281 178.566406 177.359375 179.578125 C 177.367188 179.882812 177.378906 180.1875 177.375 180.492188 Z M 241.039062 183.335938 C 236.1875 192.066406 225.660156 194.242188 216.445312 194.191406 C 211.410156 194.167969 206.84375 193.527344 202.695312 190.480469 C 198.996094 187.757812 196.097656 183.972656 193.285156 180.386719 C 192.199219 179 189.820312 179.246094 188.679688 180.386719 C 187.316406 181.753906 187.589844 183.605469 188.679688 184.996094 C 192.027344 189.265625 195.5 193.46875 200.027344 196.542969 C 205.113281 199.996094 211.019531 200.730469 217.039062 200.710938 C 228.378906 200.671875 240.785156 197.207031 246.660156 186.625 C 248.699219 182.957031 243.078125 179.664062 241.039062 183.335938 Z M 264.234375 175.164062 C 264.144531 172.878906 264.019531 170.417969 262.0625 168.902344 C 260.804688 167.929688 259.140625 167.644531 257.664062 168.269531 C 256.984375 168.554688 256.425781 168.996094 255.976562 169.5625 C 255.464844 169.839844 254.992188 170.222656 254.765625 170.734375 C 254.40625 171.5625 254.136719 172.351562 253.9375 173.167969 C 253.664062 173.769531 253.457031 174.402344 253.304688 175.023438 C 252.84375 176.90625 252.570312 179.1875 253.191406 181.074219 C 253.609375 182.34375 254.402344 183.539062 255.472656 184.304688 C 255.695312 184.507812 255.9375 184.691406 256.203125 184.847656 C 256.226562 184.863281 256.257812 184.875 256.285156 184.886719 C 256.398438 184.960938 256.527344 185.015625 256.652344 185.074219 C 257.238281 185.429688 257.910156 185.652344 258.648438 185.652344 C 260.023438 185.65625 261.277344 184.96875 262.085938 183.910156 C 263.03125 182.882812 263.507812 181.5 263.691406 180.015625 C 264.207031 178.484375 264.296875 176.765625 264.234375 175.164062 Z M 264.234375 175.164062 " fill-opacity="1" fill-rule="nonzero"/><path fill="#e73f1c" d="M 175.234375 278.613281 C 174.5625 277.347656 173.707031 276.191406 172.722656 275.164062 C 173.355469 275.21875 173.6875 274.316406 173.097656 273.960938 L 172.671875 273.699219 C 173.144531 273.476562 173.1875 272.765625 172.652344 272.523438 C 172.660156 272.371094 172.601562 272.210938 172.445312 272.066406 C 172.332031 271.960938 172.21875 271.855469 172.101562 271.75 C 172.300781 271.402344 172.214844 270.875 171.742188 270.773438 C 171.582031 270.738281 171.5 270.707031 171.382812 270.59375 C 170.972656 270.21875 170.441406 270.492188 170.308594 270.890625 C 170.058594 271.128906 169.980469 271.5625 170.265625 271.824219 C 170.289062 271.847656 170.316406 271.871094 170.34375 271.898438 C 170.214844 272.132812 170.21875 272.441406 170.398438 272.644531 C 170.289062 272.691406 170.199219 272.773438 170.128906 272.863281 C 169.96875 272.792969 169.800781 272.734375 169.640625 272.65625 C 168.890625 272.300781 168.261719 273.335938 168.984375 273.78125 C 171.152344 275.125 172.914062 277.023438 174.109375 279.273438 C 174.503906 280.011719 175.628906 279.355469 175.234375 278.613281 Z M 175.234375 278.613281 " fill-opacity="1" fill-rule="nonzero"/></svg>