<svg xmlns="http://www.w3.org/2000/svg" xmlns:xlink="http://www.w3.org/1999/xlink" width="500" zoomAndPan="magnify" viewBox="0 0 375 374.999991" height="500" preserveAspectRatio="xMidYMid meet" version="1.0"><defs><clipPath id="413776ff60"><path d="M 262 52 L 327.5625 52 L 327.5625 119 L 262 119 Z M 262 52 " clip-rule="nonzero"/></clipPath><clipPath id="9a872622f9"><path d="M 192 213 L 245 213 L 245 337.5 L 192 337.5 Z M 192 213 " clip-rule="nonzero"/></clipPath><clipPath id="fb90f2109d"><path d="M 120 276 L 204 276 L 204 337.5 L 120 337.5 Z M 120 276 " clip-rule="nonzero"/></clipPath><clipPath id="90de970d21"><path d="M 47.8125 302 L 136 302 L 136 337.5 L 47.8125 337.5 Z M 47.8125 302 " clip-rule="nonzero"/></clipPath><clipPath id="124605b902"><path d="M 179 37.5 L 217 37.5 L 217 81 L 179 81 Z M 179 37.5 " clip-rule="nonzero"/></clipPath><clipPath id="31c372af57"><path d="M 253 216 L 311 216 L 311 337.5 L 253 337.5 Z M 253 216 " clip-rule="nonzero"/></clipPath><clipPath id="5de283f4bc"><path d="M 293 37.5 L 327 37.5 L 327 79 L 293 79 Z M 293 37.5 " clip-rule="nonzero"/></clipPath></defs><path fill="#2e7d32" d="M 248.097656 162.605469 C 248.121094 162.402344 250.179688 143.960938 250.453125 127.957031 C 242.3125 128.046875 233.882812 128.09375 225.332031 128.09375 C 213.472656 128.09375 201.386719 127.992188 189.492188 127.75 L 205.945312 137.542969 L 248.097656 162.632812 C 248.097656 162.621094 248.097656 162.617188 248.097656 162.605469 Z M 248.097656 162.605469 " fill-opacity="1" fill-rule="nonzero"/><g clip-path="url(#413776ff60)"><path fill="#2e7d32" d="M 283.175781 52.234375 C 281.515625 61.449219 275.417969 91.617188 262.820312 118.082031 C 293.136719 117.601562 317.785156 116.703125 327.070312 116.332031 L 311.523438 91.855469 C 311.523438 91.855469 311.523438 91.855469 311.523438 91.847656 C 305.875 81.894531 292.679688 60.816406 283.175781 52.234375 Z M 283.175781 52.234375 " fill-opacity="1" fill-rule="nonzero"/></g><g clip-path="url(#9a872622f9)"><path fill="#2e7d32" d="M 244.195312 294.796875 C 244.566406 281.367188 244.832031 271.382812 243.355469 258.292969 C 242.820312 258.019531 242.3125 257.695312 241.832031 257.324219 C 241.683594 257.214844 227.300781 246.03125 213.074219 233.425781 C 203.683594 225.109375 197.078125 218.605469 192.421875 213.402344 C 194.585938 240.496094 198.601562 259.273438 202.222656 276.207031 C 203.0625 280.140625 203.859375 283.847656 204.617188 287.609375 C 205.785156 293.363281 207.777344 300.746094 209.710938 307.886719 C 212.847656 319.492188 215.8125 330.460938 216.179688 337.234375 C 216.183594 337.316406 216.179688 337.410156 216.179688 337.492188 L 243.96875 337.492188 C 243.53125 318.769531 243.902344 305.480469 244.195312 294.796875 Z M 244.195312 294.796875 " fill-opacity="1" fill-rule="nonzero"/></g><path fill="#2e7d32" d="M 248.746094 118.261719 C 243.519531 103.898438 235.972656 82.242188 226.929688 53.6875 C 226.726562 53.0625 226.582031 52.589844 226.480469 52.265625 C 219.386719 63.511719 204.746094 89.863281 203.714844 91.855469 L 191.722656 118.082031 C 210.890625 118.449219 230.503906 118.449219 248.746094 118.261719 Z M 248.746094 118.261719 " fill-opacity="1" fill-rule="nonzero"/><path fill="#2e7d32" d="M 252.734375 175.105469 C 250.984375 175.105469 249.257812 174.632812 247.757812 173.734375 L 211.503906 152.160156 C 203.359375 165.019531 191.25 185.988281 191.25 193.363281 C 191.25 198.507812 200.761719 209.542969 219.519531 226.160156 C 233.484375 238.53125 247.652344 249.546875 247.792969 249.65625 C 247.957031 249.546875 264.546875 238.46875 280.714844 226.75 C 290.273438 219.820312 297.886719 213.980469 303.34375 209.386719 C 309.484375 204.21875 312.894531 200.632812 313.511719 198.691406 C 313.511719 198.691406 313.511719 198.683594 313.511719 198.683594 C 313.542969 198.582031 313.574219 198.480469 313.589844 198.382812 C 313.609375 198.285156 313.621094 198.195312 313.621094 198.101562 C 313.621094 198.101562 313.621094 198.097656 313.621094 198.097656 C 313.617188 193.152344 302.457031 167.792969 295.414062 153.347656 L 257.363281 173.933594 C 255.949219 174.707031 254.351562 175.105469 252.734375 175.105469 Z M 252.734375 175.105469 " fill-opacity="1" fill-rule="nonzero"/><g clip-path="url(#fb90f2109d)"><path fill="#2e7d32" d="M 120.332031 276.785156 C 123.6875 285.960938 128.410156 291.78125 132.378906 303.246094 L 132.269531 303.316406 C 132.578125 304.035156 132.929688 304.839844 133.332031 305.757812 C 137.464844 315.269531 144.386719 331.183594 147.210938 337.507812 L 203.597656 337.507812 C 171.351562 297.363281 144.308594 286.421875 120.332031 276.785156 Z M 120.332031 276.785156 " fill-opacity="1" fill-rule="nonzero"/></g><path fill="#2e7d32" d="M 124.402344 309.617188 C 124.238281 309.246094 124.082031 308.878906 123.925781 308.519531 L 118.191406 312.09375 C 121.828125 314 125.140625 316.082031 128.140625 318.210938 C 126.785156 315.097656 125.5 312.136719 124.402344 309.617188 Z M 124.402344 309.617188 " fill-opacity="1" fill-rule="nonzero"/><path fill="#2e7d32" d="M 123.816406 267.714844 C 145.882812 276.589844 172.738281 287.398438 203.457031 322.253906 C 202.496094 318.460938 201.402344 314.417969 200.328125 310.429688 C 198.359375 303.140625 196.316406 295.605469 195.089844 289.546875 C 194.335938 285.839844 193.550781 282.15625 192.714844 278.246094 C 188.445312 258.292969 183.640625 235.828125 181.835938 200.535156 C 157.519531 219.679688 139.753906 238.84375 117.578125 265.191406 C 119.609375 266.023438 121.667969 266.847656 123.816406 267.714844 Z M 123.816406 267.714844 " fill-opacity="1" fill-rule="nonzero"/><g clip-path="url(#90de970d21)"><path fill="#2e7d32" d="M 108.421875 318.207031 L 47.878906 302.765625 L 65.910156 337.5 L 135.417969 337.5 C 130.140625 331.769531 121.042969 323.566406 108.421875 318.207031 Z M 108.421875 318.207031 " fill-opacity="1" fill-rule="nonzero"/></g><g clip-path="url(#124605b902)"><path fill="#2e7d32" d="M 216.902344 49.257812 L 179.421875 37.683594 L 198.734375 80.75 C 203.390625 72.390625 211.40625 58.183594 216.902344 49.257812 Z M 216.902344 49.257812 " fill-opacity="1" fill-rule="nonzero"/></g><g clip-path="url(#31c372af57)"><path fill="#2e7d32" d="M 309.617188 216.820312 C 303.984375 221.566406 296.179688 227.550781 286.433594 234.613281 C 270.113281 246.445312 253.367188 257.625 253.195312 257.738281 C 253.160156 257.761719 253.121094 257.78125 253.078125 257.804688 C 254.554688 271.238281 254.28125 281.425781 253.90625 295.058594 C 253.613281 305.65625 253.25 318.835938 253.695312 337.378906 C 253.695312 337.414062 253.6875 337.457031 253.6875 337.492188 L 287.410156 337.492188 C 293.621094 283.613281 300.003906 265.652344 310.011719 216.472656 C 309.882812 216.59375 309.75 216.703125 309.617188 216.820312 Z M 309.617188 216.820312 " fill-opacity="1" fill-rule="nonzero"/></g><g clip-path="url(#5de283f4bc)"><path fill="#2e7d32" d="M 314.722656 78.210938 C 318.488281 62.433594 324.425781 38.527344 325.945312 38.015625 C 327.515625 37.492188 306.632812 44.425781 293.46875 48.792969 C 301.265625 57.195312 309.5 69.734375 314.722656 78.210938 Z M 314.722656 78.210938 " fill-opacity="1" fill-rule="nonzero"/></g><path fill="#2e7d32" d="M 260.179688 127.832031 C 259.960938 142.316406 258.332031 158.34375 257.875 162.621094 L 325.382812 126.121094 C 314.4375 126.542969 289.804688 127.398438 260.179688 127.832031 Z M 260.179688 127.832031 " fill-opacity="1" fill-rule="nonzero"/><path fill="#2e7d32" d="M 255.984375 109.6875 C 266.109375 86.871094 271.433594 62.09375 273.292969 52.222656 L 236.671875 52.222656 C 244.414062 76.628906 251.03125 95.867188 255.984375 109.6875 Z M 255.984375 109.6875 " fill-opacity="1" fill-rule="nonzero"/></svg>